<?xml version="1.0" standalone="no"?>
<!DOCTYPE svg PUBLIC "-//W3C//DTD SVG 20010904//EN"
 "http://www.w3.org/TR/2001/REC-SVG-20010904/DTD/svg10.dtd">
<svg version="1.0" xmlns="http://www.w3.org/2000/svg"
 width="1042.000000pt" height="1042.000000pt" viewBox="0 0 1042.000000 1042.000000"
 preserveAspectRatio="xMidYMid meet">
<metadata>
Created by potrace 1.11, written by Peter Selinger 2001-2013
</metadata>
<g transform="translate(0.000000,1042.000000) scale(0.100000,-0.100000)"
fill="#000000" stroke="none">
<path d="M1390 5335 l0 -845 180 0 180 0 0 340 0 340 193 0 c230 0 290 9 383
55 365 180 364 730 -1 904 -99 47 -137 51 -550 51 l-385 0 0 -845z m760 495
c56 -28 83 -72 88 -141 5 -69 -19 -121 -75 -159 -35 -24 -43 -25 -225 -28
l-188 -3 0 175 0 176 180 0 c160 0 185 -2 220 -20z"/>
<path d="M3165 5698 c-131 -18 -241 -74 -346 -178 -126 -126 -183 -263 -182
-440 3 -375 349 -655 755 -610 111 12 182 32 263 72 96 47 94 42 35 152 -28
53 -53 96 -54 96 -1 0 -46 -11 -100 -25 -66 -17 -129 -25 -190 -26 -104 -1
-131 4 -200 38 -49 25 -156 122 -156 142 0 8 129 11 419 11 l419 0 6 31 c11
58 6 214 -9 274 -80 312 -355 505 -660 463z m190 -312 c59 -27 119 -90 146
-153 11 -25 18 -48 16 -50 -2 -2 -126 -2 -276 -1 l-272 3 31 62 c33 66 89 121
151 147 53 23 145 20 204 -8z"/>
<path d="M4645 5703 c-116 -8 -228 -46 -281 -95 l-22 -19 -23 40 -23 41 -143
0 -143 0 0 -825 0 -825 165 0 165 0 0 284 0 285 50 -34 c141 -95 338 -116 503
-55 360 135 497 607 275 948 -113 174 -310 270 -523 255z m138 -323 c58 -29
107 -81 144 -152 24 -46 27 -65 28 -143 0 -80 -3 -96 -30 -148 -37 -74 -109
-140 -177 -163 -68 -22 -187 -16 -244 14 -49 25 -110 91 -131 140 -40 95 -34
250 12 341 50 99 135 142 270 138 62 -2 91 -8 128 -27z"/>
<path d="M5949 5700 c-92 -9 -159 -30 -219 -70 -25 -16 -48 -30 -52 -30 -3 0
-15 16 -27 35 l-20 35 -141 0 -140 0 0 -825 0 -825 165 0 165 0 0 287 0 286
23 -21 c66 -62 207 -106 337 -105 122 1 204 26 305 95 247 164 337 515 207
800 -80 175 -251 311 -417 332 -95 13 -110 13 -186 6z m139 -305 c99 -42 170
-125 198 -233 50 -200 -98 -402 -296 -402 -134 0 -215 47 -270 154 -34 66 -35
73 -35 175 0 89 4 114 23 157 30 65 85 119 148 144 62 24 179 26 232 5z"/>
<path d="M7190 5699 c-250 -27 -467 -223 -526 -476 -22 -92 -14 -245 16 -332
31 -88 111 -203 182 -262 74 -62 196 -124 286 -146 151 -37 372 -13 517 56
103 49 101 42 41 151 -59 107 -49 103 -171 71 -111 -30 -259 -31 -335 -2 -63
24 -137 80 -175 131 l-26 35 420 3 c363 2 420 4 425 17 17 45 18 175 2 256
-27 131 -83 237 -175 328 -138 138 -289 191 -481 170z m175 -308 c22 -10 57
-35 78 -55 35 -35 87 -122 87 -146 0 -7 -91 -10 -270 -10 -179 0 -270 3 -270
10 0 54 91 162 165 196 63 30 152 32 210 5z"/>
<path d="M8573 5685 c-66 -20 -127 -60 -176 -115 -25 -28 -47 -47 -50 -43 -2
5 -10 38 -17 76 l-12 67 -149 0 -149 0 0 -590 0 -590 165 0 164 0 3 353 3 352
27 46 c34 58 77 95 146 126 89 41 175 47 315 20 11 -2 28 112 39 248 l3 40
-50 12 c-68 15 -211 15 -262 -2z"/>
</g>
</svg>
